<svg xmlns="http://www.w3.org/2000/svg" viewBox="0 0 200 48">
  <defs>
    <linearGradient id="accentGrad" x1="0%" y1="0%" x2="100%" y2="100%">
      <stop offset="0%" style="stop-color:#0ea5e9"/>
      <stop offset="100%" style="stop-color:#38bdf8"/>
    </linearGradient>
  </defs>
  <!-- Icon mark -->
  <rect x="0" y="4" width="40" height="40" rx="10" fill="url(#accentGrad)"/>
  <!-- Stylised S shape inside icon -->
  <path d="M13 16c0-2.2 1.8-4 4-4h6c1.1 0 2 .9 2 2s-.9 2-2 2h-6v4h6c2.2 0 4 1.8 4 4s-1.8 4-4 4h-6c-1.1 0-2-.9-2-2s.9-2 2-2h6v-4h-6c-2.2 0-4-1.8-4-4z" fill="white" opacity="0.95"/>
  <!-- Wordmark -->
  <text x="52" y="30" font-family="Inter, Arial, sans-serif" font-size="22" font-weight="800" fill="#ffffff" letter-spacing="-0.5">SNSN</text>
  <text x="116" y="30" font-family="Inter, Arial, sans-serif" font-size="22" font-weight="800" fill="url(#accentGrad)" letter-spacing="-0.5">Fintech</text>
  <!-- Tagline -->
  <text x="52" y="43" font-family="Inter, Arial, sans-serif" font-size="8" font-weight="600" fill="rgba(255,255,255,0.6)" letter-spacing="0.5">MORTGAGE BROKERS</text>
</svg>
